# xmcd
#
# Track frame offsets:
# 150
# 24395
# 53942
# 79250
# 93696
# 112569
# 124245
# 140234
#
# Disc length: 2326 seconds
#
# Revision: 0
# Processed by: cddbd v1.5.2PL0 Copyright (c) Steve Scherf et al.
# Submitted via: Audion 3.0.2 (http://www.panic.com/audion/)
#
DISCID=69091408
DTITLE=Fernand Raynaud - Compilation [CD02)
DYEAR=1900
DGENRE=
TTITLE0=Ne me parle pas de Grenoble
TTITLE1=Le racket
TTITLE2=Y'a pas de justice
TTITLE3=Le brassard
TTITLE4=Le fromage de Hollande
TTITLE5=Toto en prison
TTITLE6=La prevention routiere
TTITLE7=I am comic
EXTD=
EXTT0=
EXTT1=
EXTT2=
EXTT3=
EXTT4=
EXTT5=
EXTT6=
EXTT7=
PLAYORDER=
